<svg xmlns="http://www.w3.org/2000/svg" fill="none" viewBox="0 0 538 55"><path fill="#fff" d="m50.626 4.55-6.187 30.995-6.944-30.994-12.055.001-6.944 30.993L12.31 4.552H0l10.038 47.342h14.33l7.005-31.435 7.006 31.435h14.014l9.974-47.343H50.626Zm26.796 8.711c-7.64 0-13.004 2.588-14.96 4.419v10.1c2.272-2.019 7.07-4.987 13.382-4.987 3.914 0 5.366 1.073 5.366 3.283 0 1.895-2.019 2.651-7.638 3.851-8.52 1.768-13.445 4.86-13.445 12.246 0 6.817 4.482 10.794 10.983 10.794 5.445 0 8.698-2.526 10.478-5.92v4.847H93.33v-23.23c0-10.669-5.557-15.403-15.908-15.403ZM75.78 45.33c-2.776 0-4.292-1.704-4.292-4.04 0-3.03 2.4-4.23 5.43-5.303 1.578-.591 3.159-1.21 4.228-2.145v5.239c0 3.976-2.083 6.249-5.366 6.249Zm34.127-40.78H97.723v47.344h12.184V4.551Zm48.893 8.839c-5.91 0-9.729 3.552-11.729 8.283-1.071-5.069-4.632-8.283-9.606-8.283-5.637 0-9.312 3.287-11.174 7.904v-6.832h-11.992v37.433h12.183V31.126c0-5.113 1.705-8.017 5.366-8.017 2.968 0 3.977 2.02 3.977 5.176v23.608h12.184V31.124c0-5.112 1.702-8.016 5.364-8.016 2.967 0 3.977 2.02 3.977 5.176v23.608h12.182V26.579c0-7.89-3.724-13.193-10.73-13.193m30.678-.125c-7.64 0-13.004 2.588-14.961 4.419v10.1c2.273-2.019 7.071-4.987 13.383-4.987 3.914 0 5.366 1.073 5.366 3.283 0 1.895-2.019 2.651-7.638 3.851-8.521 1.768-13.445 4.86-13.445 12.246 0 6.817 4.482 10.794 10.983 10.794 5.445 0 8.697-2.526 10.478-5.92v4.847h11.742v-23.23c0-10.669-5.557-15.403-15.908-15.403Zm-1.642 32.069c-2.776 0-4.292-1.704-4.292-4.04 0-3.03 2.4-4.23 5.43-5.303 1.578-.591 3.158-1.21 4.228-2.145v5.239c0 3.976-2.084 6.249-5.366 6.249Zm33.645-20.293V14.461h-11.93v37.433h12.183V35.987c0-7.32 4.545-9.278 8.901-9.278 1.452 0 2.84.19 3.472.38V14.211c-6.856-.332-11.019 4.046-12.626 10.828m35.855-1.109v-9.468h-7.764v-7.26h-12.183v32.194c0 9.026 5.113 13.256 13.256 13.256 3.787 0 5.807-.758 6.691-1.326v-9.405c-.696.505-1.83.884-3.282.884-2.716.063-4.484-1.137-4.484-5.114v-13.76h7.766Z"/><path fill="#0092DB" d="M272.576 4.553h19.002c10.354 0 16.349 3.66 16.349 12.878 0 5.934-4.291 8.9-10.161 10.1 6.881 1.012 11.74 3.915 11.74 10.858 0 9.028-6.69 13.512-18.306 13.512h-18.622l-.002-47.348Zm12.248 9.344v9.279h5.43c3.976 0 5.618-1.768 5.618-4.607 0-3.093-1.642-4.672-5.618-4.672h-5.43Zm0 18.306v10.354h5.682c4.672 0 6.567-2.02 6.567-5.114 0-3.407-1.895-5.24-6.567-5.24h-5.682Zm51.518 11.679c-1.957 5.367-6.06 9.28-12.626 9.28-7.324 0-11.49-5.365-11.49-13.699V14.527h11.932v22.979c0 3.852 1.452 6.061 4.987 6.061 4.103 0 7.071-3.725 7.071-10.04v-19h11.869v37.372h-11.743v-8.017Zm36.492-14.52c5.114 1.578 8.524 4.672 8.524 11.301 0 7.954-6.44 12.246-15.846 12.246-7.322 0-11.49-1.515-14.141-3.283V39.589c1.895 2.02 6.819 4.545 12.753 4.545 3.599 0 5.745-.568 5.745-2.777 0-3.6-5.241-3.157-10.417-4.86-5.114-1.642-8.46-4.356-8.396-11.112 0-7.764 6.06-12.121 15.34-12.121 6.756 0 10.732 1.327 12.816 2.715v9.786c-1.705-1.578-6.376-3.788-11.806-3.788-3.407 0-5.491.568-5.491 2.903 0 3.031 5.556 2.778 10.921 4.483m10.673-22.411c0-3.472 2.398-5.114 6.691-5.114 4.229 0 6.691 1.642 6.691 5.114 0 3.534-2.462 5.176-6.691 5.176-4.293 0-6.691-1.642-6.691-5.176Zm12.625 44.947h-11.932V14.526h11.932V51.9Zm16.606.001h-11.932V14.525h11.805v7.892c1.958-5.241 6.061-9.028 12.501-9.028 7.512 0 11.678 5.366 11.678 13.7v24.808H424.86V29.046c0-3.852-1.452-6.06-5.176-6.06-4.166 0-6.944 3.662-6.944 9.974V51.9Zm48.045 1.2c-13.573 0-21.464-7.514-21.464-19.887 0-12.246 8.144-19.885 18.622-19.885 10.606 0 18.055 6.69 17.045 22.79h-23.799c.884 5.302 4.23 7.639 10.795 7.639 4.61 0 8.964-1.39 11.239-3.22v9.532c-1.578 1.326-6.376 3.03-12.438 3.03Zm-9.533-23.863h12.816c-.19-5.176-2.4-7.324-5.87-7.324-3.726 0-6.125 2.146-6.946 7.324Zm46.783.125c5.113 1.578 8.522 4.672 8.522 11.301 0 7.954-6.44 12.246-15.846 12.246-7.322 0-11.49-1.515-14.142-3.283V39.589c1.896 2.02 6.82 4.545 12.754 4.545 3.599 0 5.745-.568 5.745-2.777 0-3.6-5.241-3.157-10.417-4.86-5.114-1.642-8.46-4.356-8.396-11.112 0-7.764 6.06-12.121 15.34-12.121 6.755 0 10.732 1.327 12.815 2.715v9.786c-1.704-1.578-6.375-3.788-11.805-3.788-3.408 0-5.491.568-5.491 2.903 0 3.031 5.556 2.776 10.921 4.482Zm31.443 0C534.592 30.94 538 34.034 538 40.663c0 7.954-6.44 12.246-15.846 12.246-7.321 0-11.489-1.515-14.141-3.283V39.589c1.895 2.02 6.819 4.545 12.753 4.545 3.6 0 5.746-.568 5.746-2.777 0-3.6-5.241-3.157-10.418-4.86-5.113-1.642-8.459-4.356-8.396-11.112 0-7.764 6.06-12.121 15.34-12.121 6.756 0 10.732 1.327 12.816 2.715v9.786c-1.704-1.578-6.376-3.788-11.806-3.788-3.408 0-5.49.568-5.49 2.903 0 3.031 5.555 2.776 10.92 4.482Z"/></svg>