<svg viewBox="0 0 50 50" fill="none" xmlns="http://www.w3.org/2000/svg"><g clip-path="url(#clip0_94999_88721)"><rect width="50" height="50" rx="25" fill="#DCEDD6"/><path d="M32.6441 8.92854C35.0266 8.92854 36.5466 10.6477 37.7366 12.8322C37.7366 12.8322 39.5095 15.4935 39.5095 16.741V19.4196H38.3934H12.2773H11.1613V16.741C11.1613 15.6293 13.1061 12.8322 13.1061 12.8322C14.1624 10.6081 15.8163 8.92854 18.1987 8.92854H32.6441Z" fill="#439E18"/><path d="M12.2773 19.4196H38.3934V16.741C38.3934 16.741 33.0363 12.5 25.2238 12.5C17.4113 12.5 12.2773 16.741 12.2773 16.741V19.4196Z" fill="#D8E3F4"/><path d="M20.9817 19.4196L26.1443 12.5196C27.1937 12.5642 28.1942 12.6831 29.1382 12.8539L24.2257 19.4196H20.9817Z" fill="#D3EFF8"/><path d="M26.7568 19.4196H25.355L30.0505 13.0383C30.457 13.1292 30.8515 13.229 31.2335 13.3358L26.7568 19.4196Z" fill="#D3EFF8"/><path d="M20.7585 19.4196L25.9272 12.5114C26.9826 12.5458 27.9897 12.6557 28.941 12.8191L24.0025 19.4196H20.7585Z" fill="#EEF2FA"/><path d="M26.5335 19.4196H25.1317L29.8583 12.9962C30.2667 13.0838 30.6635 13.1807 31.0479 13.2847L26.5335 19.4196Z" fill="#EEF2FA"/><path d="M11.1613 16.741C11.1613 15.6293 13.1061 12.8322 13.1061 12.8322C14.1624 10.6081 15.8163 8.92854 18.1987 8.92854H32.6441C35.0266 8.92854 36.5466 10.6477 37.7366 12.8322C37.7366 12.8322 39.5095 15.4935 39.5095 16.741V15.0669C39.5095 13.8254 37.7544 10.9375 37.7544 10.9375C36.5669 8.76345 34.9674 7.14282 32.5898 7.14282H18.0809C15.7033 7.14282 13.9201 8.72402 12.866 10.9375C12.866 10.9375 11.1613 13.8489 11.1613 14.9553L11.1613 16.741Z" fill="#2A8703"/><path d="M13.322 39.9553H9.89342C9.1175 39.9553 8.4827 39.4133 8.4827 38.7507V28.4366C8.4827 27.7742 9.1175 27.2321 9.89342 27.2321H13.322C14.0979 27.2321 14.7327 27.7742 14.7327 28.4366V33.2589H35.9381V28.4366C35.9381 27.7742 36.5729 27.2321 37.3488 27.2321H40.7773C41.5533 27.2321 42.1881 27.7742 42.1881 28.4366V38.7507C42.1881 39.4133 41.5533 39.9553 40.7773 39.9553H37.3488C36.5729 39.9553 35.9381 39.4133 35.9381 38.7507V36.1607H14.7327V38.7507C14.7327 39.4133 14.0979 39.9553 13.322 39.9553Z" fill="#00172C"/><path fill-rule="evenodd" clip-rule="evenodd" d="M42.4754 22.5171L40.0498 19.6593C39.8842 19.4318 39.5701 19.4196 39.3055 19.4196H11.3654C11.1006 19.4196 10.8042 19.4467 10.621 19.6593L8.19534 22.5171C7.89076 22.8873 7.58984 23.238 7.58984 23.7234V33.1522C7.58984 33.9509 8.19417 34.5982 8.93974 34.5982H41.7312C42.4766 34.5982 43.0809 33.9509 43.0809 33.1522V23.7234C43.0809 23.238 42.7405 22.8602 42.4754 22.5171Z" fill="#7AA5F6"/><path fill-rule="evenodd" clip-rule="evenodd" d="M11.3654 19.4196C11.1006 19.4196 10.8042 19.4467 10.621 19.6593L8.19534 22.5171C7.89076 22.8873 7.58984 23.238 7.58984 23.7234V33.1522C7.58984 33.9509 8.19417 34.5982 8.93974 34.5982H41.7312C42.4766 34.5982 43.0809 33.9509 43.0809 33.1522V23.7234C43.0809 23.238 42.7405 22.8602 42.4754 22.5171L40.0498 19.6593C39.8842 19.4318 39.5701 19.4196 39.3055 19.4196H11.3654Z" fill="#72E070"/><path d="M43.0809 32.1428H7.58984V33.1522C7.58984 33.9509 8.19417 34.5982 8.93974 34.5982H41.7312C42.4766 34.5982 43.0809 33.9509 43.0809 33.1522V32.1428Z" fill="#2A8703"/><path d="M11.1546 23.6607C11.5265 23.6607 11.8309 23.9451 11.8309 24.2929V27.0089H7.58984V23.6607H11.1546Z" fill="#EF3E23"/><path d="M39.5162 23.6607C39.1443 23.6607 38.8398 23.9451 38.8398 24.2929V27.0089H43.0809V23.6607H39.5162Z" fill="#EF3E23"/><path fill-rule="evenodd" clip-rule="evenodd" d="M7.58984 27.6785H11.8309V27.0089H7.58984V27.6785Z" fill="white"/><path fill-rule="evenodd" clip-rule="evenodd" d="M38.8398 27.6785H43.0809V27.0089H38.8398V27.6785Z" fill="white"/><path d="M12.2773 19.4196H38.3934V20.3125L36.2699 27.7448C35.9414 28.8947 34.8903 29.6875 33.6944 29.6875H16.9764C15.7804 29.6875 14.7294 28.8947 14.4009 27.7448L12.2773 20.3125V19.4196Z" fill="#0B1E40"/><path fill-rule="evenodd" clip-rule="evenodd" d="M28.1256 21.2053H30.5809V20.3125H28.1256V21.2053ZM31.0273 21.2053V20.0893L30.7728 19.866H27.9337L27.6791 20.0893V21.2053H25.6702V29.4643H33.0363V21.2053H31.0273Z" fill="#2A8703"/><path fill-rule="evenodd" clip-rule="evenodd" d="M29.799 25.0606C29.799 24.9166 29.7391 24.7901 29.5366 24.7901C29.4327 24.7901 29.35 24.82 29.305 24.8468L29.338 24.9623C29.3791 24.9358 29.4448 24.9137 29.5069 24.9137C29.6096 24.9134 29.6264 24.9733 29.6264 25.0117V25.0208C29.4024 25.0205 29.2609 25.1 29.2609 25.2621C29.2609 25.3609 29.333 25.4536 29.4583 25.4536C29.5354 25.4536 29.5998 25.4222 29.6384 25.3716H29.6422C29.6422 25.3716 29.6678 25.4812 29.8089 25.4394C29.8014 25.3937 29.799 25.345 29.799 25.2862V25.0606ZM29.6321 25.2125C29.6321 25.2242 29.6309 25.2364 29.6279 25.2469C29.6148 25.2908 29.5704 25.3281 29.5149 25.3281C29.4685 25.3281 29.4318 25.3011 29.4318 25.2441C29.4318 25.1568 29.5254 25.1328 29.6321 25.1333V25.2125ZM26.4953 24.5942C26.5127 24.6837 26.5617 24.9433 26.5617 24.9433C26.5824 25.0502 26.6014 25.1621 26.6157 25.2505H26.6183C26.6322 25.1566 26.6542 25.0675 26.6776 24.9571L26.7604 24.5942H26.9434L27.0209 24.9666C27.0413 25.0702 27.0573 25.15 27.0701 25.2463H27.0727C27.0866 25.149 27.1046 25.0659 27.1248 24.9595L27.199 24.5942H27.3748L27.157 25.4394C27.0184 25.4705 26.9652 25.4133 26.9462 25.3223C26.9271 25.2315 26.8899 25.0585 26.8899 25.0585C26.8708 24.9637 26.8559 24.8969 26.8455 24.7996H26.8429C26.828 24.8959 26.8125 24.9634 26.7892 25.058L26.6979 25.4394C26.5562 25.4682 26.5072 25.4254 26.48 25.309C26.4565 25.2091 26.3102 24.5942 26.3102 24.5942H26.4953ZM27.874 25.0606C27.874 24.9166 27.8141 24.7901 27.6117 24.7901C27.5076 24.7901 27.4252 24.82 27.38 24.8468L27.413 24.9623C27.4542 24.9358 27.5198 24.9137 27.5819 24.9137C27.6846 24.9134 27.7015 24.9733 27.7015 25.0117V25.0208C27.4775 25.0205 27.336 25.1 27.336 25.2621C27.336 25.3609 27.4081 25.4536 27.5333 25.4536C27.6104 25.4536 27.6748 25.4222 27.7136 25.3716H27.7173C27.7173 25.3716 27.7429 25.4812 27.8839 25.4394C27.8765 25.3937 27.874 25.345 27.874 25.2862V25.0606ZM27.7072 25.2125C27.7072 25.2242 27.7062 25.2364 27.703 25.2469C27.6901 25.2908 27.6457 25.3281 27.5901 25.3281C27.5438 25.3281 27.5069 25.3011 27.5069 25.2441C27.5069 25.1568 27.6005 25.1328 27.7072 25.1333V25.2125ZM27.9853 25.4394H28.1527V24.5942H27.9853V25.4394ZM30.5077 24.5942V24.7941H30.6535V24.9558H30.5077V25.1943C30.5077 25.2714 30.5269 25.309 30.5839 25.309C30.6107 25.309 30.6304 25.3054 30.6474 25.3011L30.6496 25.4352C30.6266 25.444 30.578 25.4536 30.5285 25.4536C30.4703 25.4536 30.4217 25.4328 30.3922 25.4007C30.3585 25.3639 30.3427 25.3036 30.3427 25.2177V24.5942H30.5077ZM30.0625 24.8045V24.9242H30.0672C30.098 24.8328 30.1713 24.7901 30.2357 24.7901C30.2519 24.7901 30.2608 24.7914 30.2738 24.7941V24.9603C30.2583 24.958 30.244 24.9558 30.2239 24.9558C30.1511 24.9558 30.1001 24.9993 30.0874 25.0674C30.0848 25.0813 30.0836 25.0968 30.0836 25.1143V25.4394H29.911V24.8045H30.0625ZM28.4296 24.8045V24.8907H28.4321C28.4606 24.8445 28.5078 24.7901 28.6124 24.7901C28.694 24.7901 28.7565 24.8353 28.7831 24.9037H28.7856C28.8084 24.8692 28.8346 24.843 28.864 24.8246C28.8989 24.8027 28.9374 24.7901 28.9861 24.7901C29.0964 24.7901 29.1941 24.8683 29.1941 25.0655V25.4394H29.0258V25.0914C29.0258 24.9916 28.9928 24.9337 28.9239 24.9337C28.8736 24.9337 28.8368 24.9684 28.8231 25.011C28.8183 25.0257 28.816 25.0459 28.816 25.0625V25.4394H28.648V25.0775C28.648 24.9926 28.6161 24.9337 28.5483 24.9337C28.494 24.9337 28.46 24.9775 28.4461 25.015C28.44 25.031 28.4382 25.0496 28.4382 25.0669V25.4394H28.2699V24.8045H28.4296Z" fill="white"/><path fill-rule="evenodd" clip-rule="evenodd" d="M31.4948 24.7391L31.462 24.3581C31.462 24.3204 31.505 24.2895 31.5591 24.2895C31.6132 24.2895 31.6562 24.3204 31.6562 24.3581L31.6233 24.7391C31.6196 24.7621 31.5922 24.7798 31.5589 24.7798C31.5258 24.7798 31.4985 24.7621 31.4948 24.7391ZM31.2917 24.9354L30.9535 24.774C30.9218 24.7553 30.917 24.7016 30.9441 24.6536C30.9712 24.6056 31.0188 24.5829 31.0505 24.6017L31.3559 24.8213C31.3734 24.8362 31.3747 24.8691 31.3581 24.8988C31.3416 24.9281 31.3128 24.9436 31.2917 24.9354ZM31.7619 24.8213L32.0674 24.6017C32.0991 24.5829 32.1468 24.6056 32.1739 24.6536C32.2008 24.7016 32.1963 24.7553 32.1645 24.774L31.8262 24.9354C31.8051 24.9436 31.7764 24.9281 31.7598 24.8988C31.7431 24.8692 31.7446 24.8362 31.7619 24.8213ZM31.5589 25.2556C31.5922 25.2556 31.6196 25.2733 31.6233 25.2963L31.6562 25.6772C31.6562 25.715 31.6132 25.7459 31.5591 25.7459C31.505 25.7459 31.462 25.715 31.462 25.6772L31.4948 25.2963C31.4985 25.2733 31.5258 25.2556 31.5589 25.2556ZM31.7598 25.1366C31.7764 25.1071 31.8051 25.0918 31.8262 25.1L32.1645 25.2612C32.1963 25.2801 32.2008 25.3338 32.1739 25.3817C32.1468 25.4297 32.0991 25.4525 32.0674 25.4337L31.7619 25.2142C31.7446 25.1992 31.7431 25.1661 31.7598 25.1366ZM31.3581 25.1366C31.3747 25.1661 31.3734 25.1992 31.3559 25.2142L31.0505 25.4337C31.0188 25.4525 30.9712 25.4297 30.9441 25.3817C30.917 25.3338 30.9218 25.2801 30.9535 25.2612L31.2917 25.1C31.3128 25.0918 31.3416 25.1071 31.3581 25.1366Z" fill="#FFC220"/><path fill-rule="evenodd" clip-rule="evenodd" d="M20.0898 21.2053H22.5452V20.3125H20.0898V21.2053ZM22.9916 21.2053V20.0893L22.737 19.866H19.898L19.6434 20.0893V21.2053H17.6345V29.4643H25.0006V21.2053H22.9916Z" fill="#2A8703"/><path fill-rule="evenodd" clip-rule="evenodd" d="M21.7633 25.0606C21.7633 24.9166 21.7034 24.7901 21.5008 24.7901C21.3969 24.7901 21.3143 24.82 21.2693 24.8468L21.3023 24.9623C21.3434 24.9358 21.4091 24.9137 21.4712 24.9137C21.5739 24.9134 21.5907 24.9733 21.5907 25.0117V25.0208C21.3667 25.0205 21.2252 25.1 21.2252 25.2621C21.2252 25.3609 21.2972 25.4536 21.4225 25.4536C21.4997 25.4536 21.5641 25.4222 21.6027 25.3716H21.6065C21.6065 25.3716 21.6321 25.4812 21.7732 25.4394C21.7656 25.3937 21.7633 25.345 21.7633 25.2862V25.0606ZM21.5963 25.2125C21.5963 25.2242 21.5952 25.2364 21.5921 25.2469C21.5791 25.2908 21.5347 25.3281 21.4791 25.3281C21.4328 25.3281 21.3961 25.3011 21.3961 25.2441C21.3961 25.1568 21.4897 25.1328 21.5963 25.1333V25.2125ZM18.4596 24.5942C18.4769 24.6837 18.526 24.9433 18.526 24.9433C18.5467 25.0502 18.5656 25.1621 18.58 25.2505H18.5826C18.5965 25.1566 18.6185 25.0675 18.6419 24.9571L18.7247 24.5942H18.9077L18.9851 24.9666C19.0055 25.0702 19.0216 25.15 19.0343 25.2463H19.0369C19.0508 25.149 19.0689 25.0659 19.089 24.9595L19.1633 24.5942H19.3391L19.1213 25.4394C18.9827 25.4705 18.9294 25.4133 18.9105 25.3223C18.8914 25.2315 18.8542 25.0585 18.8542 25.0585C18.8351 24.9637 18.8202 24.8969 18.8098 24.7996H18.8072C18.7923 24.8959 18.7768 24.9634 18.7535 25.058L18.6622 25.4394C18.5205 25.4682 18.4714 25.4254 18.4442 25.309C18.4208 25.2091 18.2745 24.5942 18.2745 24.5942H18.4596ZM19.8383 25.0606C19.8383 24.9166 19.7784 24.7901 19.576 24.7901C19.4719 24.7901 19.3894 24.82 19.3443 24.8468L19.3773 24.9623C19.4185 24.9358 19.4841 24.9137 19.5462 24.9137C19.6489 24.9134 19.6658 24.9733 19.6658 25.0117V25.0208C19.4418 25.0205 19.3003 25.1 19.3003 25.2621C19.3003 25.3609 19.3724 25.4536 19.4975 25.4536C19.5747 25.4536 19.6391 25.4222 19.6778 25.3716H19.6816C19.6816 25.3716 19.7072 25.4812 19.8481 25.4394C19.8408 25.3937 19.8383 25.345 19.8383 25.2862V25.0606ZM19.6715 25.2125C19.6715 25.2242 19.6705 25.2364 19.6673 25.2469C19.6544 25.2908 19.61 25.3281 19.5544 25.3281C19.5081 25.3281 19.4712 25.3011 19.4712 25.2441C19.4712 25.1568 19.5648 25.1328 19.6715 25.1333V25.2125ZM19.9495 25.4394H20.117V24.5942H19.9495V25.4394ZM22.4719 24.5942V24.7941H22.6178V24.9558H22.4719V25.1943C22.4719 25.2714 22.4912 25.309 22.5482 25.309C22.575 25.309 22.5946 25.3054 22.6117 25.3011L22.6139 25.4352C22.5909 25.444 22.5423 25.4536 22.4928 25.4536C22.4346 25.4536 22.386 25.4328 22.3565 25.4007C22.3227 25.3639 22.307 25.3036 22.307 25.2177V24.5942H22.4719ZM22.0268 24.8045V24.9242H22.0314C22.0623 24.8328 22.1356 24.7901 22.2 24.7901C22.2162 24.7901 22.225 24.7914 22.2381 24.7941V24.9603C22.2226 24.958 22.2083 24.9558 22.1881 24.9558C22.1154 24.9558 22.0644 24.9993 22.0517 25.0674C22.0491 25.0813 22.0479 25.0968 22.0479 25.1143V25.4394H21.8753V24.8045H22.0268ZM20.3939 24.8045V24.8907H20.3964C20.4249 24.8445 20.472 24.7901 20.5767 24.7901C20.6583 24.7901 20.7208 24.8353 20.7474 24.9037H20.7499C20.7727 24.8692 20.7989 24.843 20.8283 24.8246C20.8632 24.8027 20.9017 24.7901 20.9504 24.7901C21.0607 24.7901 21.1584 24.8683 21.1584 25.0655V25.4394H20.9901V25.0914C20.9901 24.9916 20.9571 24.9337 20.8882 24.9337C20.8378 24.9337 20.8011 24.9684 20.7873 25.011C20.7826 25.0257 20.7803 25.0459 20.7803 25.0625V25.4394H20.6122V25.0775C20.6122 24.9926 20.5804 24.9337 20.5125 24.9337C20.4583 24.9337 20.4243 24.9775 20.4104 25.015C20.4043 25.031 20.4024 25.0496 20.4024 25.0669V25.4394H20.2341V24.8045H20.3939Z" fill="white"/><path fill-rule="evenodd" clip-rule="evenodd" d="M23.4591 24.7391L23.4263 24.3581C23.4263 24.3204 23.4692 24.2895 23.5234 24.2895C23.5775 24.2895 23.6205 24.3204 23.6205 24.3581L23.5876 24.7391C23.5838 24.7621 23.5565 24.7798 23.5232 24.7798C23.4901 24.7798 23.4627 24.7621 23.4591 24.7391ZM23.256 24.9354L22.9178 24.774C22.8861 24.7553 22.8813 24.7016 22.9084 24.6536C22.9354 24.6056 22.983 24.5829 23.0147 24.6017L23.3202 24.8213C23.3377 24.8362 23.339 24.8691 23.3224 24.8988C23.3059 24.9281 23.2771 24.9436 23.256 24.9354ZM23.7262 24.8213L24.0317 24.6017C24.0634 24.5829 24.1111 24.6056 24.1382 24.6536C24.1651 24.7016 24.1606 24.7553 24.1288 24.774L23.7905 24.9354C23.7693 24.9436 23.7407 24.9281 23.724 24.8988C23.7074 24.8692 23.7089 24.8362 23.7262 24.8213ZM23.5232 25.2556C23.5565 25.2556 23.5838 25.2733 23.5876 25.2963L23.6205 25.6772C23.6205 25.715 23.5775 25.7459 23.5234 25.7459C23.4692 25.7459 23.4263 25.715 23.4263 25.6772L23.4591 25.2963C23.4627 25.2733 23.4901 25.2556 23.5232 25.2556ZM23.724 25.1366C23.7407 25.1071 23.7693 25.0918 23.7905 25.1L24.1288 25.2612C24.1606 25.2801 24.1651 25.3338 24.1382 25.3817C24.1111 25.4297 24.0634 25.4525 24.0317 25.4337L23.7262 25.2142C23.7089 25.1992 23.7074 25.1661 23.724 25.1366ZM23.3224 25.1366C23.339 25.1661 23.3377 25.1992 23.3202 25.2142L23.0147 25.4337C22.983 25.4525 22.9354 25.4297 22.9084 25.3817C22.8813 25.3338 22.8861 25.2801 22.9178 25.2612L23.256 25.1C23.2771 25.0918 23.3059 25.1071 23.3224 25.1366Z" fill="#FFC220"/><path fill-rule="evenodd" clip-rule="evenodd" d="M20.0614 21.2074H22.531V20.3094H20.0614V21.2074ZM22.98 21.2074V20.0849L22.724 19.8604H19.8685L19.6124 20.0849V21.2074H17.5918V29.5143H25.0006V21.2074H22.98Z" fill="#2A8703"/><path fill-rule="evenodd" clip-rule="evenodd" d="M22.5599 25.0355C22.5836 25.0355 22.6073 25.0394 22.6212 25.0453L22.5895 25.1953C22.5836 25.2289 22.5777 25.2782 22.5777 25.3078H22.5303C22.5303 25.2947 22.5316 25.283 22.5332 25.2693C22.5335 25.2664 22.5339 25.2635 22.5342 25.2604H22.5322C22.5085 25.2999 22.4828 25.3137 22.4631 25.3137C22.4275 25.3137 22.4077 25.2841 22.4077 25.2348C22.4077 25.1539 22.4492 25.0355 22.5599 25.0355ZM22.5441 25.0769C22.4927 25.0769 22.4631 25.1697 22.4631 25.219C22.4631 25.2466 22.467 25.2644 22.4848 25.2644C22.5066 25.2644 22.5303 25.2249 22.5402 25.1736L22.5599 25.0789C22.554 25.0769 22.55 25.0769 22.5441 25.0769Z" fill="#FFC220"/><path fill-rule="evenodd" clip-rule="evenodd" d="M21.4909 25.0355C21.5363 25.0355 21.5541 25.069 21.5541 25.1026C21.5541 25.1717 21.4968 25.1993 21.4217 25.1993C21.4217 25.2006 21.4217 25.2023 21.4216 25.2043C21.4213 25.2142 21.4207 25.2309 21.4257 25.2407C21.4316 25.2565 21.4434 25.2664 21.4652 25.2664C21.4869 25.2664 21.5027 25.2604 21.5166 25.2526L21.5205 25.294C21.4988 25.3039 21.477 25.3098 21.4494 25.3098C21.3881 25.3098 21.3664 25.2664 21.3664 25.2131C21.3664 25.1361 21.4079 25.0355 21.4909 25.0355ZM21.481 25.0809C21.4593 25.0809 21.4375 25.1085 21.4257 25.1559C21.4672 25.1559 21.5027 25.142 21.5027 25.1065C21.5027 25.0907 21.4948 25.0809 21.481 25.0809Z" fill="#FFC220"/><path d="M21.7043 25.0355C21.7399 25.0355 21.7537 25.0611 21.7537 25.0927C21.7537 25.1085 21.7517 25.1223 21.7478 25.1401L21.7161 25.3078H21.6608L21.6924 25.1381C21.6944 25.1282 21.6964 25.1184 21.6964 25.1065C21.6964 25.0927 21.6905 25.0828 21.6766 25.0828C21.6569 25.0828 21.6312 25.1124 21.6213 25.1637L21.5936 25.3098H21.5383V25.3078L21.5719 25.1282C21.5778 25.0927 21.5838 25.0631 21.5857 25.0394H21.6331L21.6292 25.0769H21.6312C21.6509 25.0493 21.6766 25.0355 21.7043 25.0355Z" fill="#FFC220"/><path d="M22.1686 25.0355C22.2042 25.0355 22.218 25.0611 22.218 25.0927C22.218 25.1085 22.2161 25.1223 22.2121 25.1401L22.1805 25.3078H22.1252L22.1568 25.1381C22.1588 25.1282 22.1607 25.1184 22.1607 25.1065C22.1607 25.0927 22.1548 25.0828 22.141 25.0828C22.1212 25.0828 22.0955 25.1124 22.0856 25.1637L22.058 25.3098H22.0026V25.3078L22.0362 25.1282C22.0422 25.0927 22.0481 25.0631 22.0501 25.0394H22.0975L22.0936 25.0769H22.0955C22.1153 25.0493 22.141 25.0355 22.1686 25.0355Z" fill="#FFC220"/><path fill-rule="evenodd" clip-rule="evenodd" d="M22.3524 25.0355C22.3979 25.0355 22.4157 25.069 22.4157 25.1026C22.4157 25.1716 22.3583 25.1993 22.2833 25.1993C22.2833 25.2006 22.2832 25.2023 22.2831 25.2043C22.2828 25.2142 22.2823 25.2308 22.2872 25.2407C22.2931 25.2565 22.305 25.2664 22.3267 25.2664C22.3485 25.2664 22.3643 25.2604 22.3781 25.2525L22.3821 25.294C22.3603 25.3038 22.3386 25.3098 22.3109 25.3098C22.2497 25.3098 22.2279 25.2664 22.2279 25.2131C22.2279 25.1361 22.2694 25.0355 22.3524 25.0355ZM22.3426 25.0809C22.3208 25.0809 22.2991 25.1085 22.2872 25.1559C22.3267 25.1559 22.3643 25.142 22.3643 25.1065C22.3643 25.0907 22.3564 25.0809 22.3426 25.0809Z" fill="#FFC220"/><path d="M21.9651 25.3078H21.9098L21.9612 25.0395H22.0165L21.9651 25.3078Z" fill="#FFC220"/><path d="M21.8703 25.3078H21.8149L21.888 24.9269H21.9434L21.8703 25.3078Z" fill="#FFC220"/><path d="M23.478 24.3957C23.5438 24.3181 23.5901 24.3458 23.5906 24.3461C23.643 24.3782 23.6895 24.4407 23.7233 24.4911C23.7559 24.5398 23.7895 24.5995 23.7948 24.6586C23.7996 24.713 23.7945 24.7676 23.7945 24.822V24.9656C23.7945 25.0447 23.7422 25.0018 23.7419 25.0016L23.3532 24.544C23.3532 24.544 23.4118 24.4737 23.478 24.3957Z" fill="#FFC220"/><path d="M22.0086 25.0079H21.9691L22.0185 24.9309H22.0738L22.0086 25.0079Z" fill="#FFC220"/><path d="M23.274 24.0941C23.3475 24.0203 23.4079 24.0929 23.4089 24.0941C23.4157 24.1019 23.4228 24.1098 23.4295 24.118C23.4636 24.1577 23.5754 24.2875 23.5971 24.3129C23.6081 24.3258 23.6623 24.3868 23.6624 24.3897C23.6542 24.3885 23.6038 24.33 23.5791 24.3182C23.5244 24.2918 23.483 24.3512 23.4523 24.3861C23.4064 24.4387 23.3607 24.4914 23.3154 24.5443C23.2729 24.5942 23.2303 24.644 23.1881 24.6938C23.1484 24.7409 23.1087 24.7876 23.069 24.8346C23.0388 24.8704 23.0084 24.9061 22.9783 24.9422C22.9667 24.956 22.9552 24.9698 22.9436 24.9836C22.907 25.0261 22.8836 24.9765 22.8833 24.9397C22.8822 24.885 22.8808 24.8307 22.8802 24.776C22.8797 24.7256 22.876 24.6721 22.8839 24.622C22.8929 24.5653 23.0226 24.3918 23.0233 24.3908C23.0239 24.3901 23.1998 24.1683 23.274 24.0941Z" fill="#DE1C24"/><path fill-rule="evenodd" clip-rule="evenodd" d="M20.0703 24.4662C20.1038 24.4656 20.1304 24.4717 20.1543 24.5011V24.4746H20.2031V24.7977C20.2031 24.8465 20.1939 24.8912 20.1717 24.9247C20.1494 24.9579 20.113 24.979 20.0622 24.979H20.0619C20.0226 24.979 19.9874 24.9657 19.9727 24.9602L19.968 24.9585L19.9721 24.8999L19.9813 24.9056C20.0021 24.9183 20.033 24.929 20.0625 24.929C20.1061 24.9288 20.1272 24.9111 20.1402 24.8811C20.1506 24.8565 20.1538 24.8233 20.1549 24.7858C20.1347 24.8193 20.1052 24.8329 20.0732 24.8326C20.0247 24.8329 19.9917 24.8066 19.9724 24.7717C19.9527 24.7367 19.9452 24.6925 19.9452 24.6536C19.9452 24.6005 19.9536 24.5543 19.9735 24.5205C19.9934 24.4867 20.0258 24.4659 20.0703 24.4662ZM20.0758 24.5164C20.0446 24.5167 20.0264 24.5335 20.014 24.5595C20.0018 24.5857 19.9972 24.621 19.9975 24.6539C19.9975 24.6868 20.003 24.72 20.0154 24.7443C20.0281 24.7682 20.0463 24.7829 20.0737 24.7832C20.1032 24.7832 20.1226 24.7671 20.1356 24.7422C20.1489 24.7174 20.1543 24.6845 20.1543 24.6539C20.1543 24.6129 20.1491 24.5776 20.1367 24.5537C20.124 24.5297 20.1061 24.5167 20.0758 24.5164Z" fill="white"/><path fill-rule="evenodd" clip-rule="evenodd" d="M19.6356 24.8329H19.5868V24.7962C19.5672 24.8265 19.5389 24.8413 19.5036 24.8413C19.5039 24.841 19.5036 24.841 19.503 24.841C19.4612 24.841 19.4291 24.8196 19.4086 24.7858C19.3881 24.7518 19.378 24.7056 19.378 24.6539C19.378 24.6008 19.3863 24.5545 19.4063 24.521C19.4262 24.4873 19.4586 24.4667 19.5028 24.4667C19.5331 24.4668 19.5559 24.4801 19.5715 24.4954C19.5775 24.5014 19.5828 24.5078 19.5868 24.5138V24.3123H19.6356V24.8329ZM19.5088 24.5167C19.4779 24.517 19.4594 24.5335 19.447 24.5597C19.4349 24.5857 19.4302 24.6213 19.4302 24.6542C19.4302 24.6871 19.4346 24.7223 19.447 24.7486C19.4594 24.7743 19.4779 24.791 19.5088 24.7913C19.5371 24.7913 19.5562 24.7737 19.5692 24.7468C19.5819 24.72 19.5874 24.6848 19.5874 24.6542C19.5874 24.6236 19.5819 24.5883 19.5692 24.5615C19.5562 24.5346 19.5371 24.517 19.5088 24.5167Z" fill="white"/><path fill-rule="evenodd" clip-rule="evenodd" d="M19.8008 24.4665C19.8436 24.4665 19.8751 24.4879 19.8941 24.5205C19.9135 24.5531 19.9218 24.597 19.9218 24.6443V24.6726H19.7251C19.726 24.7055 19.7341 24.7347 19.748 24.7558C19.763 24.778 19.7841 24.7913 19.8129 24.7913C19.8369 24.7916 19.8747 24.7786 19.8895 24.7671L19.9002 24.759V24.8196L19.8964 24.8213C19.8704 24.834 19.8375 24.841 19.8101 24.841H19.8095C19.7607 24.841 19.7254 24.8204 19.7038 24.7864C19.6818 24.7523 19.6732 24.7061 19.6732 24.6536C19.6732 24.5999 19.6856 24.5534 19.7075 24.5202C19.7295 24.487 19.7621 24.4665 19.8008 24.4665ZM19.8031 24.5161C19.7797 24.5162 19.7607 24.53 19.7468 24.5517C19.7341 24.5716 19.7266 24.5976 19.7254 24.6227H19.8696C19.869 24.5956 19.8638 24.5693 19.8537 24.5499C19.8424 24.5289 19.8268 24.5161 19.8031 24.5161Z" fill="white"/><path fill-rule="evenodd" clip-rule="evenodd" d="M20.3637 24.4662C20.4003 24.4662 20.4281 24.4763 20.446 24.4994C20.4647 24.5225 20.472 24.556 20.472 24.6016V24.7538C20.472 24.7815 20.472 24.8023 20.4746 24.8254L20.4754 24.8329H20.4264V24.7954C20.4056 24.8251 20.3718 24.841 20.3406 24.841H20.34C20.2979 24.841 20.2719 24.8231 20.2575 24.8008C20.243 24.7786 20.2398 24.7532 20.2395 24.7367C20.2392 24.677 20.267 24.6432 20.3039 24.6267C20.3406 24.6103 20.3856 24.6091 20.4229 24.6091V24.5981C20.4229 24.5693 20.4185 24.5485 20.4093 24.5355C20.4003 24.5228 20.3868 24.5162 20.364 24.5161C20.3354 24.5161 20.3089 24.524 20.2834 24.5433L20.2728 24.5514V24.4927L20.2759 24.4908C20.2993 24.4772 20.3365 24.4662 20.3637 24.4662ZM20.4191 24.6594C20.3888 24.6591 20.3562 24.6611 20.3322 24.6718C20.308 24.6827 20.2921 24.7001 20.2918 24.7359C20.2918 24.7572 20.2982 24.7705 20.3074 24.7792C20.3166 24.7875 20.3299 24.7916 20.3452 24.7916C20.3845 24.7913 20.4024 24.7722 20.4128 24.7474C20.4229 24.7226 20.4234 24.6923 20.4234 24.6738V24.6594H20.4191Z" fill="white"/><path fill-rule="evenodd" clip-rule="evenodd" d="M19.2145 24.4665C19.263 24.4665 19.2991 24.4896 19.322 24.5245C19.3448 24.5595 19.3552 24.6057 19.3552 24.6536C19.3552 24.7015 19.3448 24.748 19.322 24.7826C19.2991 24.8176 19.2633 24.8406 19.2148 24.8407H19.2145C19.166 24.8407 19.1299 24.8176 19.1071 24.7826C19.0843 24.7477 19.0739 24.7015 19.0739 24.6536C19.0739 24.6057 19.0843 24.5595 19.1071 24.5245C19.1299 24.4896 19.166 24.4665 19.2145 24.4665ZM19.2145 24.5164C19.1859 24.5164 19.1645 24.5309 19.1492 24.5554C19.1339 24.58 19.1258 24.6149 19.1258 24.6539C19.1258 24.6929 19.1339 24.7278 19.1492 24.7523C19.1645 24.7769 19.1859 24.791 19.2145 24.7913C19.2431 24.7913 19.2645 24.7769 19.2798 24.7523C19.2951 24.7278 19.3032 24.6929 19.3032 24.6539C19.3032 24.6149 19.2951 24.58 19.2798 24.5554C19.2645 24.5309 19.2431 24.5164 19.2145 24.5164Z" fill="white"/><path fill-rule="evenodd" clip-rule="evenodd" d="M21.9274 24.4734C22.0363 24.4734 22.0759 24.5652 22.0756 24.6689V24.6911H21.8729C21.8787 24.7391 21.9096 24.7578 21.9592 24.7578C21.9869 24.7578 22.0184 24.7503 22.0487 24.7309V24.8161C22.0161 24.8314 21.9788 24.8384 21.941 24.8384C21.8439 24.8383 21.77 24.7705 21.77 24.6556C21.77 24.5404 21.8359 24.4734 21.9274 24.4734ZM21.928 24.5493C21.8913 24.5493 21.8737 24.5823 21.8717 24.6224H21.9843C21.9843 24.5823 21.9687 24.5493 21.928 24.5493Z" fill="white"/><path d="M21.0682 24.6498C21.0682 24.7154 21.0872 24.7376 21.115 24.7376C21.1565 24.7376 21.1782 24.7035 21.1782 24.6285V24.4812H21.2796V24.83H21.1871V24.7656H21.186C21.1658 24.8158 21.1251 24.8381 21.0789 24.8381C20.9989 24.8381 20.9665 24.7711 20.9665 24.6989V24.4812H21.0682V24.6498Z" fill="white"/><path fill-rule="evenodd" clip-rule="evenodd" d="M22.486 24.4728C22.5611 24.4728 22.6258 24.511 22.6258 24.6175V24.7477C22.6258 24.7751 22.6269 24.8026 22.6316 24.83H22.5386C22.538 24.8112 22.5363 24.793 22.5363 24.7751H22.5351C22.512 24.8187 22.484 24.8381 22.4421 24.8381C22.384 24.8381 22.332 24.8037 22.3323 24.7284C22.3323 24.6218 22.43 24.6091 22.484 24.6091C22.5001 24.6091 22.5183 24.6111 22.5313 24.6137C22.5308 24.5661 22.501 24.5534 22.4641 24.5534C22.4314 24.5534 22.3985 24.5606 22.3705 24.5794L22.3687 24.4977C22.4048 24.4804 22.4427 24.4728 22.486 24.4728ZM22.4886 24.6735C22.4542 24.6735 22.4271 24.6862 22.4271 24.7197C22.4271 24.7437 22.445 24.7578 22.4687 24.7578C22.5071 24.7578 22.5313 24.7162 22.5313 24.6755C22.5183 24.6749 22.5036 24.6735 22.4886 24.6735Z" fill="white"/><path fill-rule="evenodd" clip-rule="evenodd" d="M18.8971 24.3475C18.93 24.3475 18.9626 24.3542 18.9874 24.3732C19.0122 24.3923 19.0284 24.424 19.0282 24.4708C19.0287 24.5245 19.0091 24.562 18.9701 24.5788C19.0123 24.5952 19.0403 24.6354 19.04 24.692C19.0403 24.7448 19.0218 24.7812 18.992 24.8032C18.9626 24.8251 18.9233 24.8331 18.8818 24.8331H18.7969V24.3475H18.8971ZM18.8491 24.7795L18.8829 24.7792C18.9083 24.7792 18.9352 24.7748 18.9548 24.7624C18.9744 24.7497 18.9877 24.7298 18.988 24.694C18.9877 24.6536 18.9741 24.6336 18.9539 24.6221C18.9337 24.6103 18.9052 24.6079 18.8769 24.6079H18.8491V24.7795ZM18.85 24.554L18.887 24.5537C18.9069 24.5537 18.9297 24.5505 18.9467 24.539C18.9638 24.5274 18.9762 24.5084 18.9762 24.4723C18.9759 24.4397 18.9643 24.4232 18.949 24.4133C18.9334 24.4038 18.9129 24.4012 18.8971 24.4015H18.85V24.554Z" fill="white"/><path fill-rule="evenodd" clip-rule="evenodd" d="M20.9468 24.8303H20.8319L20.8028 24.7304H20.6552L20.6242 24.8303H20.5177L20.6667 24.3628H20.7952L20.9468 24.8303ZM20.6791 24.642H20.7779L20.7311 24.4593H20.73L20.6791 24.642Z" fill="white"/><path d="M21.5063 24.4731C21.5181 24.4731 21.5305 24.4751 21.5406 24.4772L21.536 24.5776C21.5247 24.5736 21.5134 24.5736 21.5016 24.5736C21.4543 24.5736 21.4277 24.6146 21.4277 24.6827V24.83H21.3261V24.4812H21.4185V24.5453H21.4196C21.437 24.5011 21.4624 24.4731 21.5063 24.4731Z" fill="white"/><path d="M21.7408 24.4731C21.7526 24.4731 21.765 24.4751 21.7751 24.4772L21.7699 24.5776C21.7587 24.5736 21.7474 24.5736 21.7356 24.5736C21.6882 24.5736 21.6617 24.6143 21.6617 24.6827V24.83H21.5603V24.4812H21.6527V24.5453H21.6539C21.6712 24.5011 21.6966 24.4731 21.7408 24.4731Z" fill="white"/><path d="M22.2927 24.4734C22.3045 24.4734 22.317 24.4754 22.3271 24.4774L22.3221 24.5776C22.3109 24.5736 22.2996 24.5736 22.2878 24.5736C22.2405 24.5736 22.2139 24.6143 22.2139 24.6827V24.83H22.1126V24.4812H22.205V24.5456H22.2061C22.2234 24.5014 22.2488 24.4734 22.2927 24.4734Z" fill="white"/><path fill-rule="evenodd" clip-rule="evenodd" d="M28.1532 21.2074H30.6228V20.3094H28.1532V21.2074ZM31.0718 21.2074V20.0849L30.8158 19.8604H27.9603L27.7042 20.0849V21.2074H25.6836V29.5143H33.0924V21.2074H31.0718Z" fill="#2A8703"/><path fill-rule="evenodd" clip-rule="evenodd" d="M30.6517 25.0355C30.6754 25.0355 30.6991 25.0394 30.713 25.0453L30.6813 25.1953C30.6754 25.2289 30.6695 25.2782 30.6695 25.3078H30.6221C30.6221 25.2947 30.6234 25.283 30.625 25.2693C30.6253 25.2664 30.6257 25.2635 30.626 25.2604H30.624C30.6003 25.2999 30.5746 25.3137 30.5549 25.3137C30.5193 25.3137 30.4995 25.2841 30.4995 25.2348C30.4995 25.1539 30.541 25.0355 30.6517 25.0355ZM30.6359 25.0769C30.5845 25.0769 30.5549 25.1697 30.5549 25.219C30.5549 25.2466 30.5588 25.2644 30.5766 25.2644C30.5983 25.2644 30.6221 25.2249 30.632 25.1736L30.6517 25.0789C30.6458 25.0769 30.6418 25.0769 30.6359 25.0769Z" fill="#FFC220"/><path fill-rule="evenodd" clip-rule="evenodd" d="M29.5827 25.0355C29.6281 25.0355 29.6459 25.069 29.6459 25.1026C29.6459 25.1717 29.5886 25.1993 29.5135 25.1993C29.5135 25.2006 29.5135 25.2023 29.5134 25.2043C29.5131 25.2142 29.5125 25.2309 29.5175 25.2407C29.5234 25.2565 29.5352 25.2664 29.557 25.2664C29.5787 25.2664 29.5945 25.2604 29.6084 25.2526L29.6123 25.294C29.5906 25.3039 29.5688 25.3098 29.5412 25.3098C29.4799 25.3098 29.4582 25.2664 29.4582 25.2131C29.4582 25.1361 29.4997 25.0355 29.5827 25.0355ZM29.5728 25.0809C29.551 25.0809 29.5293 25.1085 29.5174 25.1559C29.5589 25.1559 29.5945 25.142 29.5945 25.1065C29.5945 25.0907 29.5866 25.0809 29.5728 25.0809Z" fill="#FFC220"/><path d="M29.7961 25.0355C29.8317 25.0355 29.8455 25.0611 29.8455 25.0927C29.8455 25.1085 29.8435 25.1223 29.8396 25.1401L29.8079 25.3078H29.7526L29.7842 25.1381C29.7862 25.1282 29.7882 25.1184 29.7882 25.1065C29.7882 25.0927 29.7823 25.0828 29.7684 25.0828C29.7487 25.0828 29.723 25.1124 29.7131 25.1637L29.6854 25.3098H29.6301V25.3078L29.6637 25.1282C29.6696 25.0927 29.6755 25.0631 29.6775 25.0394H29.7249L29.721 25.0769H29.723C29.7427 25.0493 29.7684 25.0355 29.7961 25.0355Z" fill="#FFC220"/><path d="M30.2604 25.0355C30.296 25.0355 30.3098 25.0611 30.3098 25.0927C30.3098 25.1085 30.3079 25.1223 30.3039 25.1401L30.2723 25.3078H30.217L30.2486 25.1381C30.2506 25.1282 30.2525 25.1184 30.2525 25.1065C30.2525 25.0927 30.2466 25.0828 30.2328 25.0828C30.213 25.0828 30.1873 25.1124 30.1774 25.1637L30.1498 25.3098H30.0944V25.3078L30.128 25.1282C30.134 25.0927 30.1399 25.0631 30.1419 25.0394H30.1893L30.1853 25.0769H30.1873C30.2071 25.0493 30.2328 25.0355 30.2604 25.0355Z" fill="#FFC220"/><path fill-rule="evenodd" clip-rule="evenodd" d="M30.4442 25.0355C30.4897 25.0355 30.5075 25.069 30.5075 25.1026C30.5074 25.1716 30.4501 25.1993 30.3751 25.1993C30.3751 25.2006 30.375 25.2023 30.3749 25.2043C30.3746 25.2142 30.3741 25.2308 30.379 25.2407C30.3849 25.2565 30.3968 25.2664 30.4185 25.2664C30.4403 25.2664 30.4561 25.2604 30.4699 25.2525L30.4739 25.294C30.4521 25.3038 30.4304 25.3098 30.4027 25.3098C30.3415 25.3098 30.3197 25.2664 30.3197 25.2131C30.3197 25.1361 30.3612 25.0355 30.4442 25.0355ZM30.4343 25.0809C30.4126 25.0809 30.3909 25.1085 30.379 25.1559C30.4185 25.1559 30.4561 25.142 30.4561 25.1065C30.4561 25.0907 30.4482 25.0809 30.4343 25.0809Z" fill="#FFC220"/><path d="M30.0569 25.3078H30.0016L30.053 25.0395H30.1083L30.0569 25.3078Z" fill="#FFC220"/><path d="M29.9621 25.3078H29.9067L29.9798 24.9269H30.0352L29.9621 25.3078Z" fill="#FFC220"/><path d="M31.5698 24.3957C31.6356 24.3181 31.6819 24.3458 31.6824 24.3461C31.7348 24.3782 31.7813 24.4407 31.8151 24.4911C31.8477 24.5398 31.8813 24.5995 31.8866 24.6586C31.8914 24.713 31.8863 24.7676 31.8863 24.822V24.9656C31.8863 25.0447 31.834 25.0018 31.8337 25.0016L31.4449 24.544C31.4449 24.544 31.5036 24.4737 31.5698 24.3957Z" fill="#FFC220"/><path d="M30.1004 25.0079H30.0609L30.1103 24.9309H30.1656L30.1004 25.0079Z" fill="#FFC220"/><path d="M31.3658 24.0941C31.4393 24.0203 31.4997 24.0929 31.5007 24.0941C31.5075 24.1019 31.5145 24.1098 31.5213 24.118C31.5554 24.1577 31.6672 24.2875 31.6889 24.3129C31.6999 24.3258 31.7541 24.3868 31.7542 24.3897C31.746 24.3885 31.6956 24.33 31.6709 24.3182C31.6162 24.2918 31.5748 24.3512 31.5441 24.3861C31.4982 24.4387 31.4525 24.4914 31.4072 24.5443C31.3647 24.5942 31.3221 24.644 31.2799 24.6938C31.2402 24.7409 31.2005 24.7876 31.1608 24.8346C31.1306 24.8704 31.1002 24.9061 31.0701 24.9422C31.0585 24.956 31.047 24.9698 31.0354 24.9836C30.9988 25.0261 30.9754 24.9765 30.9751 24.9397C30.974 24.885 30.9726 24.8307 30.972 24.776C30.9715 24.7256 30.9678 24.6721 30.9757 24.622C30.9847 24.5653 31.1144 24.3918 31.1151 24.3908C31.1157 24.3901 31.2916 24.1683 31.3658 24.0941Z" fill="#DE1C24"/><path fill-rule="evenodd" clip-rule="evenodd" d="M28.1621 24.4662C28.1956 24.4656 28.2222 24.4717 28.2461 24.5011V24.4746H28.2949V24.7977C28.2949 24.8465 28.2857 24.8912 28.2635 24.9247C28.2412 24.9579 28.2048 24.979 28.154 24.979H28.1537C28.1144 24.979 28.0792 24.9657 28.0645 24.9602L28.0598 24.9585L28.0639 24.8999L28.0731 24.9056C28.0939 24.9183 28.1248 24.929 28.1543 24.929C28.1979 24.9288 28.219 24.9111 28.232 24.8811C28.2424 24.8565 28.2456 24.8233 28.2467 24.7858C28.2265 24.8193 28.197 24.8329 28.165 24.8326C28.1165 24.8329 28.0835 24.8066 28.0642 24.7717C28.0445 24.7367 28.037 24.6925 28.037 24.6536C28.037 24.6005 28.0454 24.5543 28.0653 24.5205C28.0852 24.4867 28.1176 24.4659 28.1621 24.4662ZM28.1676 24.5164C28.1364 24.5167 28.1182 24.5335 28.1058 24.5595C28.0936 24.5857 28.089 24.621 28.0893 24.6539C28.0893 24.6868 28.0948 24.72 28.1072 24.7443C28.1199 24.7682 28.1381 24.7829 28.1655 24.7832C28.195 24.7832 28.2144 24.7671 28.2274 24.7422C28.2407 24.7174 28.2461 24.6845 28.2461 24.6539C28.2461 24.6129 28.2409 24.5776 28.2285 24.5537C28.2158 24.5297 28.1979 24.5167 28.1676 24.5164Z" fill="white"/><path fill-rule="evenodd" clip-rule="evenodd" d="M27.7274 24.8329H27.6786V24.7962C27.659 24.8265 27.6307 24.8413 27.5954 24.8413C27.5957 24.841 27.5954 24.841 27.5948 24.841C27.553 24.841 27.5209 24.8196 27.5004 24.7858C27.4799 24.7518 27.4698 24.7056 27.4698 24.6539C27.4698 24.6008 27.4781 24.5545 27.4981 24.521C27.518 24.4873 27.5504 24.4667 27.5946 24.4667C27.6249 24.4668 27.6477 24.4801 27.6633 24.4954C27.6693 24.5014 27.6746 24.5078 27.6786 24.5138V24.3123H27.7274V24.8329ZM27.6006 24.5167C27.5697 24.517 27.5512 24.5335 27.5388 24.5597C27.5267 24.5857 27.522 24.6213 27.522 24.6542C27.522 24.6871 27.5264 24.7223 27.5388 24.7486C27.5512 24.7743 27.5697 24.791 27.6006 24.7913C27.6289 24.7913 27.648 24.7737 27.661 24.7468C27.6737 24.72 27.6792 24.6848 27.6792 24.6542C27.6792 24.6236 27.6737 24.5883 27.661 24.5615C27.648 24.5346 27.6289 24.517 27.6006 24.5167Z" fill="white"/><path fill-rule="evenodd" clip-rule="evenodd" d="M27.8926 24.4665C27.9354 24.4665 27.9669 24.4879 27.9859 24.5205C28.0053 24.5531 28.0136 24.597 28.0136 24.6443V24.6726H27.8169C27.8178 24.7055 27.8259 24.7347 27.8398 24.7558C27.8548 24.778 27.8759 24.7913 27.9047 24.7913C27.9287 24.7916 27.9665 24.7786 27.9813 24.7671L27.992 24.759V24.8196L27.9882 24.8213C27.9622 24.834 27.9293 24.841 27.9019 24.841H27.9013C27.8525 24.841 27.8172 24.8204 27.7956 24.7864C27.7736 24.7523 27.765 24.7061 27.765 24.6536C27.765 24.5999 27.7774 24.5534 27.7993 24.5202C27.8213 24.487 27.8539 24.4665 27.8926 24.4665ZM27.8949 24.5161C27.8715 24.5162 27.8525 24.53 27.8386 24.5517C27.8259 24.5716 27.8184 24.5976 27.8172 24.6227H27.9614C27.9608 24.5956 27.9556 24.5693 27.9455 24.5499C27.9342 24.5289 27.9186 24.5161 27.8949 24.5161Z" fill="white"/><path fill-rule="evenodd" clip-rule="evenodd" d="M28.4555 24.4662C28.4921 24.4662 28.5199 24.4763 28.5378 24.4994C28.5565 24.5225 28.5638 24.556 28.5638 24.6016V24.7538C28.5638 24.7815 28.5638 24.8023 28.5663 24.8254L28.5672 24.8329H28.5181V24.7954C28.4974 24.8251 28.4636 24.841 28.4324 24.841H28.4318C28.3897 24.841 28.3637 24.8231 28.3492 24.8008C28.3348 24.7786 28.3316 24.7532 28.3313 24.7367C28.331 24.677 28.3588 24.6432 28.3957 24.6267C28.4324 24.6103 28.4774 24.6091 28.5147 24.6091V24.5981C28.5147 24.5693 28.5103 24.5485 28.5011 24.5355C28.4921 24.5228 28.4786 24.5162 28.4558 24.5161C28.4272 24.5161 28.4006 24.524 28.3752 24.5433L28.3645 24.5514V24.4927L28.3677 24.4908C28.3911 24.4772 28.4283 24.4662 28.4555 24.4662ZM28.5109 24.6594C28.4806 24.6591 28.448 24.6611 28.424 24.6718C28.3998 24.6827 28.3839 24.7001 28.3836 24.7359C28.3836 24.7572 28.39 24.7705 28.3992 24.7792C28.4084 24.7875 28.4217 24.7916 28.437 24.7916C28.4763 24.7913 28.4942 24.7722 28.5046 24.7474C28.5147 24.7226 28.5152 24.6923 28.5152 24.6738V24.6594H28.5109Z" fill="white"/><path fill-rule="evenodd" clip-rule="evenodd" d="M27.3063 24.4665C27.3548 24.4665 27.3909 24.4896 27.4137 24.5245C27.4366 24.5595 27.447 24.6057 27.447 24.6536C27.447 24.7015 27.4366 24.748 27.4137 24.7826C27.3909 24.8176 27.3551 24.8406 27.3066 24.8407H27.3063C27.2578 24.8407 27.2217 24.8176 27.1989 24.7826C27.1761 24.7477 27.1657 24.7015 27.1657 24.6536C27.1657 24.6057 27.1761 24.5595 27.1989 24.5245C27.2217 24.4896 27.2578 24.4665 27.3063 24.4665ZM27.3063 24.5164C27.2777 24.5164 27.2563 24.5309 27.241 24.5554C27.2257 24.58 27.2176 24.6149 27.2176 24.6539C27.2176 24.6929 27.2257 24.7278 27.241 24.7523C27.2563 24.7769 27.2777 24.791 27.3063 24.7913C27.3349 24.7913 27.3563 24.7769 27.3716 24.7523C27.3869 24.7278 27.395 24.6929 27.395 24.6539C27.395 24.6149 27.3869 24.58 27.3716 24.5554C27.3563 24.5309 27.3349 24.5164 27.3063 24.5164Z" fill="white"/><path fill-rule="evenodd" clip-rule="evenodd" d="M30.0192 24.4734C30.1281 24.4734 30.1676 24.5652 30.1674 24.6689V24.6911H29.9647C29.9705 24.7391 30.0014 24.7578 30.051 24.7578C30.0787 24.7578 30.1102 24.7503 30.1405 24.7309V24.8161C30.1079 24.8314 30.0706 24.8384 30.0328 24.8384C29.9357 24.8383 29.8618 24.7705 29.8618 24.6556C29.8618 24.5404 29.9277 24.4734 30.0192 24.4734ZM30.0198 24.5493C29.9831 24.5493 29.9655 24.5823 29.9635 24.6224H30.0761C30.0761 24.5823 30.0605 24.5493 30.0198 24.5493Z" fill="white"/><path d="M29.16 24.6498C29.16 24.7154 29.179 24.7376 29.2068 24.7376C29.2483 24.7376 29.27 24.7035 29.27 24.6285V24.4812H29.3714V24.83H29.2789V24.7656H29.2778C29.2576 24.8158 29.2169 24.8381 29.1707 24.8381C29.0907 24.8381 29.0583 24.7711 29.0583 24.6989V24.4812H29.16V24.6498Z" fill="white"/><path fill-rule="evenodd" clip-rule="evenodd" d="M30.5778 24.4728C30.6529 24.4728 30.7176 24.511 30.7176 24.6175V24.7477C30.7176 24.7751 30.7187 24.8026 30.7234 24.83H30.6304C30.6298 24.8112 30.6281 24.793 30.6281 24.7751H30.6269C30.6038 24.8187 30.5758 24.8381 30.5339 24.8381C30.4758 24.8381 30.4238 24.8037 30.4241 24.7284C30.4241 24.6218 30.5218 24.6091 30.5758 24.6091C30.5919 24.6091 30.6101 24.6111 30.6231 24.6137C30.6226 24.5661 30.5928 24.5534 30.5559 24.5534C30.5232 24.5534 30.4903 24.5606 30.4623 24.5794L30.4605 24.4977C30.4966 24.4804 30.5345 24.4728 30.5778 24.4728ZM30.5804 24.6735C30.546 24.6735 30.5189 24.6862 30.5189 24.7197C30.5189 24.7437 30.5368 24.7578 30.5605 24.7578C30.5989 24.7578 30.6231 24.7162 30.6231 24.6755C30.6101 24.6749 30.5954 24.6735 30.5804 24.6735Z" fill="white"/><path fill-rule="evenodd" clip-rule="evenodd" d="M26.9889 24.3475C27.0218 24.3475 27.0544 24.3542 27.0792 24.3732C27.104 24.3923 27.1202 24.424 27.12 24.4708C27.1205 24.5245 27.1009 24.562 27.0619 24.5788C27.104 24.5952 27.1321 24.6354 27.1318 24.692C27.1321 24.7448 27.1136 24.7812 27.0838 24.8032C27.0544 24.8251 27.0151 24.8331 26.9736 24.8331H26.8887V24.3475H26.9889ZM26.9409 24.7795L26.9747 24.7792C27.0001 24.7792 27.027 24.7748 27.0466 24.7624C27.0662 24.7497 27.0795 24.7298 27.0798 24.694C27.0795 24.6536 27.0659 24.6336 27.0457 24.6221C27.0255 24.6103 26.9969 24.6079 26.9687 24.6079H26.9409V24.7795ZM26.9418 24.554L26.9788 24.5537C26.9987 24.5537 27.0215 24.5505 27.0385 24.539C27.0556 24.5274 27.068 24.5084 27.068 24.4723C27.0677 24.4397 27.0561 24.4232 27.0408 24.4133C27.0252 24.4038 27.0047 24.4012 26.9889 24.4015H26.9418V24.554Z" fill="white"/><path fill-rule="evenodd" clip-rule="evenodd" d="M29.0386 24.8303H28.9237L28.8946 24.7304H28.747L28.716 24.8303H28.6095L28.7585 24.3628H28.887L29.0386 24.8303ZM28.7709 24.642H28.8697L28.8229 24.4593H28.8218L28.7709 24.642Z" fill="white"/><path d="M29.5981 24.4731C29.6099 24.4731 29.6223 24.4751 29.6324 24.4772L29.6278 24.5776C29.6165 24.5736 29.6052 24.5736 29.5934 24.5736C29.5461 24.5736 29.5195 24.6146 29.5195 24.6827V24.83H29.4179V24.4812H29.5103V24.5453H29.5114C29.5288 24.5011 29.5542 24.4731 29.5981 24.4731Z" fill="white"/><path d="M29.8326 24.4731C29.8444 24.4731 29.8568 24.4751 29.8669 24.4772L29.8617 24.5776C29.8505 24.5736 29.8392 24.5736 29.8274 24.5736C29.78 24.5736 29.7535 24.6143 29.7535 24.6827V24.83H29.6521V24.4812H29.7445V24.5453H29.7457C29.763 24.5011 29.7884 24.4731 29.8326 24.4731Z" fill="white"/><path d="M30.3845 24.4734C30.3963 24.4734 30.4088 24.4754 30.4189 24.4774L30.4139 24.5776C30.4027 24.5736 30.3914 24.5736 30.3796 24.5736C30.3323 24.5736 30.3057 24.6143 30.3057 24.6827V24.83H30.2044V24.4812H30.2968V24.5456H30.2979C30.3152 24.5014 30.3406 24.4734 30.3845 24.4734Z" fill="white"/></g><defs><clipPath id="clip0_94999_88721"><rect width="50" height="50" rx="25" fill="white"/></clipPath></defs></svg>