<svg viewBox="0 0 480 90" fill="none" xmlns="http://www.w3.org/2000/svg"><path d="M446.427 69.5404C440.431 69.5404 435.906 64.828 435.906 58.0459C436.019 51.0344 440.544 46.5514 446.427 46.5514C452.311 46.5514 456.836 50.4596 456.836 58.0459C456.836 64.8274 452.084 69.5404 446.427 69.5404ZM81.5693 69.5404C75.9125 69.5404 71.161 64.828 71.161 58.0459C71.161 50.4596 75.9125 46.5514 81.5693 46.5514C87.2261 46.5514 92.0908 51.0344 92.0908 57.9309C92.0908 64.8274 87.6783 69.5404 81.5693 69.5404ZM374.022 90C380.018 90 384.203 87.9309 386.919 84.2527V89.0802H408.867V27.0111H386.693V62.0685C386.693 67.3559 384.204 70.9191 380.132 70.9191C375.832 70.9191 373.796 67.5858 373.796 62.1835V27.0111H351.622V64.9424C351.622 80.4596 358.409 90 374.022 90ZM119.13 89.0807H141.304V53.9083C141.304 48.506 144.019 45.2877 148.205 45.2877C152.618 45.2877 154.993 48.736 154.993 53.7934V89.0807H176.941V54.0228C176.941 48.5055 179.77 45.2872 183.843 45.2872C188.255 45.2872 190.631 48.7354 190.631 53.9078V89.0802H212.692V52.0687C212.692 36.0917 205.112 26.2063 188.708 26.2063C181.58 26.2063 176.037 28.9647 172.303 33.6777C168.796 28.8502 163.365 26.2063 155.446 26.2063C148.885 26.2063 144.246 28.7352 141.078 32.8728V27.0106H119.13V89.0807ZM309.874 89.7701C313.608 89.7701 316.889 89.1952 318.925 88.5058V67.2414C317.341 68.1607 314.06 68.9656 310.327 68.9656C303.426 68.9656 298.335 64.5975 298.335 57.586C298.335 50.5745 303.878 46.4364 310.44 46.4364C314.4 46.4364 317.228 47.2413 318.925 48.2755V27.0111C316.889 26.3213 314.174 25.8619 310.44 25.8619C291.547 25.8619 275.708 36.6665 275.708 57.586C275.708 78.5055 290.189 89.7701 309.874 89.7701ZM76.3652 89.6551C83.04 89.6551 88.0178 87.471 91.4118 83.3335V89.0807H113.473V27.0117H91.4118V32.414C88.0178 28.1609 83.2663 25.8624 77.1568 25.8624C61.0917 25.8624 48.8733 38.5062 48.8733 57.8165C48.8733 77.1268 62.2234 89.6551 76.3652 89.6551ZM238.147 89.885C254.099 89.885 262.697 80.6895 262.697 68.6206C262.697 55.8619 254.665 52.2987 247.425 50.1146C243.125 48.8504 239.618 47.9306 239.618 45.8615C239.618 43.7925 241.315 42.5283 244.935 42.5283C251.836 42.5283 257.154 44.9422 261.566 48.8499V30.5738C257.946 28.0449 251.611 25.7464 242.447 25.7464C227.513 25.7464 216.765 33.5627 216.765 47.3557C216.765 58.9652 224.798 62.4135 231.247 64.3675C235.885 65.7467 239.392 66.5516 239.392 68.965C239.392 71.1491 237.582 72.5283 233.735 72.5283C228.192 72.5283 221.743 69.7699 217.331 65.6318V84.4827C221.064 87.1266 227.4 89.885 238.147 89.885ZM21.3819 89.885C37.3338 89.885 45.932 80.6895 45.932 68.6206C45.932 55.8619 37.8997 52.2987 30.659 50.1146C26.3597 48.8504 22.8525 47.9306 22.8525 45.8615C22.8525 43.7925 24.5495 42.5283 28.1699 42.5283C35.071 42.5283 40.3883 44.9422 44.8008 48.8499V30.5738C41.1805 28.0449 34.8452 25.7464 25.6812 25.7464C10.7473 25.7464 0 33.5627 0 47.3557C0 58.9652 8.03229 62.4135 14.4813 64.3675C19.1196 65.7467 22.6267 66.5516 22.6267 68.965C22.6267 71.1491 20.8166 72.5283 16.9699 72.5283C11.4263 72.5283 4.97781 69.7699 0.565314 65.6318V84.4827C4.2988 87.1266 10.6341 89.885 21.3819 89.885ZM324.016 89.0807H346.303V8.6201H324.016V89.0807ZM414.523 89.0807H436.585V83.3335C440.092 87.4716 445.07 89.6551 451.519 89.6551C465.887 89.7701 479.35 77.2413 479.35 57.816C479.35 38.3907 467.018 25.9769 450.84 25.8619C445.183 25.8619 440.318 27.586 436.585 30.9193V8.6201H414.523V89.0807ZM214.502 34.7125L231.812 17.4712L214.389 0L196.853 17.4712L214.502 34.7125Z" fill="white"/></svg>