<svg xmlns="http://www.w3.org/2000/svg" fill="none" viewBox="0 0 72 73"><path fill="var(--ld-illustration-token-1, #4dbdf5)" d="M54 4.856v4.5l-4.5.9v-5.4H54Zm-2.25 40.5h-31.5v13.5h31.5v-13.5Z"/><path fill="var(--ld-illustration-token-3, #0053e2)" fill-rule="evenodd" d="m48.803 36.176-5.355-7.515a15.818 15.818 0 0 1-2.948-9.18v-3.375H45v4.5h4.5V4.856H36a11.18 11.18 0 0 0-4.297.855 11.131 11.131 0 0 0-3.645 2.43 11.371 11.371 0 0 0-2.43 3.645 11.35 11.35 0 0 0-.855 4.298h6.75v3.375c0 3.285-1.035 6.502-2.948 9.18l-5.355 7.515a15.8 15.8 0 0 0-2.97 9.202h31.5c0-3.285-1.035-6.502-2.947-9.18Z" clip-rule="evenodd"/><path fill="var(--ld-illustration-token-3, #0053e2)" d="M51.75 58.856h-31.5v9.99h31.5v-9.99Z"/><path fill="var(--ld-illustration-token-5, #ffffff)" d="M45 49.856H27v4.5h18v-4.5Z"/></svg>